<svg viewBox="0 0 800 1000" xmlns="http://www.w3.org/2000/svg">
  <!-- Title -->
  <text x="400" y="30" text-anchor="middle" font-size="24" font-weight="bold">VESTA Microphone Array Diagnostic Flowchart</text>
  
  <!-- Start -->
  <ellipse cx="400" cy="80" rx="80" ry="30" fill="#4CAF50" stroke="#333" stroke-width="2"/>
  <text x="400" y="88" text-anchor="middle" font-size="16" fill="white">START</text>
  
  <!-- Arrow down -->
  <line x1="400" y1="110" x2="400" y2="140" stroke="#333" stroke-width="2" marker-end="url(#arrowhead)"/>
  
  <!-- Step 1: Verify Symptom -->
  <rect x="300" y="140" width="200" height="60" rx="5" fill="#2196F3" stroke="#333" stroke-width="2"/>
  <text x="400" y="165" text-anchor="middle" font-size="14" fill="white">Verify Symptom</text>
  <text x="400" y="185" text-anchor="middle" font-size="12" fill="white">Check LED Status</text>
  
  <!-- Arrow down -->
  <line x1="400" y1="200" x2="400" y2="230" stroke="#333" stroke-width="2" marker-end="url(#arrowhead)"/>
  
  <!-- Decision: LED Status -->
  <path d="M 400 230 L 500 280 L 400 330 L 300 280 Z" fill="#FF9800" stroke="#333" stroke-width="2"/>
  <text x="400" y="275" text-anchor="middle" font-size="12">LED Status?</text>
  <text x="400" y="290" text-anchor="middle" font-size="11">Blue/Red/Off</text>
  
  <!-- Branch: No Light -->
  <line x1="300" y1="280" x2="150" y2="280" stroke="#333" stroke-width="2" marker-end="url(#arrowhead)"/>
  <text x="225" y="270" text-anchor="middle" font-size="11">No Light</text>
  <rect x="50" y="250" width="100" height="60" rx="5" fill="#F44336" stroke="#333" stroke-width="2"/>
  <text x="100" y="275" text-anchor="middle" font-size="12" fill="white">See Power</text>
  <text x="100" y="295" text-anchor="middle" font-size="12" fill="white">Diagnostic</text>
  
  <!-- Continue main path -->
  <line x1="400" y1="330" x2="400" y2="360" stroke="#333" stroke-width="2" marker-end="url(#arrowhead)"/>
  <text x="450" y="345" font-size="11">Blue/Red</text>
  
  <!-- Step 2: Software Check -->
  <rect x="300" y="360" width="200" height="60" rx="5" fill="#2196F3" stroke="#333" stroke-width="2"/>
  <text x="400" y="385" text-anchor="middle" font-size="14" fill="white">Run Software Test</text>
  <text x="400" y="405" text-anchor="middle" font-size="12" fill="white">vesta-diag --mic-test</text>
  
  <!-- Arrow down -->
  <line x1="400" y1="420" x2="400" y2="450" stroke="#333" stroke-width="2" marker-end="url(#arrowhead)"/>
  
  <!-- Decision: Test Result -->
  <path d="M 400 450 L 500 500 L 400 550 L 300 500 Z" fill="#FF9800" stroke="#333" stroke-width="2"/>
  <text x="400" y="495" text-anchor="middle" font-size="12">Test Result?</text>
  <text x="400" y="510" text-anchor="middle" font-size="11">Pass/Fail</text>
  
  <!-- Branch: Pass -->
  <line x1="500" y1="500" x2="650" y2="500" stroke="#333" stroke-width="2" marker-end="url(#arrowhead)"/>
  <text x="575" y="490" text-anchor="middle" font-size="11">Pass</text>
  <ellipse cx="700" cy="500" rx="50" ry="30" fill="#4CAF50" stroke="#333" stroke-width="2"/>
  <text x="700" y="508" text-anchor="middle" font-size="14" fill="white">RESOLVED</text>
  
  <!-- Continue to hardware check -->
  <line x1="400" y1="550" x2="400" y2="580" stroke="#333" stroke-width="2" marker-end="url(#arrowhead)"/>
  <text x="370" y="565" font-size="11">Fail</text>
  
  <!-- Step 3: Hardware Inspection -->
  <rect x="300" y="580" width="200" height="60" rx="5" fill="#2196F3" stroke="#333" stroke-width="2"/>
  <text x="400" y="605" text-anchor="middle" font-size="14" fill="white">Visual Inspection</text>
  <text x="400" y="625" text-anchor="middle" font-size="12" fill="white">Check connections</text>
  
  <!-- Arrow down -->
  <line x1="400" y1="640" x2="400" y2="670" stroke="#333" stroke-width="2" marker-end="url(#arrowhead)"/>
  
  <!-- Step 4: Electrical Test -->
  <rect x="300" y="670" width="200" height="60" rx="5" fill="#2196F3" stroke="#333" stroke-width="2"/>
  <text x="400" y="695" text-anchor="middle" font-size="14" fill="white">Electrical Testing</text>
  <text x="400" y="715" text-anchor="middle" font-size="12" fill="white">Check voltages &amp; signals</text>
  
  <!-- Arrow down -->
  <line x1="400" y1="730" x2="400" y2="760" stroke="#333" stroke-width="2" marker-end="url(#arrowhead)"/>
  
  <!-- Decision: Issue Found -->
  <path d="M 400 760 L 500 810 L 400 860 L 300 810 Z" fill="#FF9800" stroke="#333" stroke-width="2"/>
  <text x="400" y="805" text-anchor="middle" font-size="12">Issue Found?</text>
  <text x="400" y="820" text-anchor="middle" font-size="11">Yes/No</text>
  
  <!-- Branch: Yes - Replace -->
  <line x1="500" y1="810" x2="600" y2="810" stroke="#333" stroke-width="2" marker-end="url(#arrowhead)"/>
  <text x="550" y="800" text-anchor="middle" font-size="11">Yes</text>
  <rect x="600" y="780" width="150" height="60" rx="5" fill="#4CAF50" stroke="#333" stroke-width="2"/>
  <text x="675" y="805" text-anchor="middle" font-size="12" fill="white">Replace Component</text>
  <text x="675" y="825" text-anchor="middle" font-size="12" fill="white">&amp; Verify</text>
  
  <!-- Branch: No - Escalate -->
  <line x1="300" y1="810" x2="200" y2="810" stroke="#333" stroke-width="2" marker-end="url(#arrowhead)"/>
  <text x="250" y="800" text-anchor="middle" font-size="11">No</text>
  <rect x="50" y="780" width="150" height="60" rx="5" fill="#9C27B0" stroke="#333" stroke-width="2"/>
  <text x="125" y="805" text-anchor="middle" font-size="12" fill="white">Escalate to L3</text>
  <text x="125" y="825" text-anchor="middle" font-size="12" fill="white">Support</text>
  
  <!-- Arrow marker definition -->
  <defs>
    <marker id="arrowhead" markerWidth="10" markerHeight="7" refX="9" refY="3.5" orient="auto">
      <polygon points="0 0, 10 3.5, 0 7" fill="#333"/>
    </marker>
  </defs>
  
  <!-- Legend -->
  <rect x="20" y="920" width="760" height="60" fill="#f5f5f5" stroke="#333" stroke-width="1"/>
  <text x="30" y="945" font-size="14" font-weight="bold">Legend:</text>
  <rect x="100" y="930" width="40" height="20" fill="#2196F3"/>
  <text x="150" y="945" font-size="12">Action</text>
  <path d="M 220 940 L 240 930 L 260 940 L 240 950 Z" fill="#FF9800"/>
  <text x="270" y="945" font-size="12">Decision</text>
  <ellipse cx="350" cy="940" rx="30" ry="15" fill="#4CAF50"/>
  <text x="390" y="945" font-size="12">Start/End</text>
  <rect x="470" y="930" width="40" height="20" fill="#F44336"/>
  <text x="520" y="945" font-size="12">External Reference</text>
</svg>